<svg width="869" height="860" viewBox="0 0 869 860" fill="none" xmlns="http://www.w3.org/2000/svg">
<path d="M349.833 848.664C277.745 827.488 213.904 780.614 168.109 715.236C122.313 649.858 97.0942 569.589 96.3225 486.75C96.3225 356.347 170.524 220.357 275.877 159.72C291.141 149.543 307.671 141.921 324.936 137.1C328.247 138.326 315.614 151.544 296.85 166.669C254.616 200.584 220.322 245.261 196.847 296.949C173.372 348.638 161.401 405.829 161.938 463.722C161.39 512.679 169.804 561.248 186.671 606.48C203.538 651.713 228.505 692.664 260.056 726.845C291.176 762.021 328.451 789.744 369.583 808.305C410.715 826.865 454.832 835.87 499.216 834.765C529.142 834.765 552.077 835.855 550.36 837.763C537.837 843.391 524.859 847.68 511.604 850.572C458.295 862.446 403.359 862.029 350.201 849.346L349.833 848.664ZM136.918 745.104C86.8445 694.5 48.5855 631.138 25.4328 560.468C12.3096 516.728 0 489.704 0 413.124C8.97418 338.373 12.8002 325.96 26.9045 285.218C47.6991 222.823 80.8806 166.437 123.984 120.247C167.087 74.0571 219.004 39.2512 275.877 18.4152C332.049 -1.47912 429.063 -6.11205 482.782 8.74059C531.104 21.9581 619.042 68.1511 635.967 88.7268L648.232 103.716L629.467 93.2235C574.752 64.5401 514.817 50.2711 454.328 51.5271C376.001 51.0471 299.415 77.1816 234.835 126.427C170.256 175.672 120.77 245.675 93.011 327.05C69.7571 402.629 63.6899 483.425 75.3499 562.24C90.1976 628.325 117.079 690.329 154.334 744.423C162.949 753.672 169.936 764.624 174.939 776.717C160.995 768.265 148.196 757.669 136.918 745.241V745.104ZM420.723 773.311C381.03 764.394 343.712 745.467 311.645 717.991C279.578 690.515 253.62 655.223 235.772 614.837C220.931 579.545 210.893 565.8 207.902 499.94C207.902 454.564 221.913 423.116 226.696 414.531C233.196 402.676 234.3 407.445 234.545 446.962C234.545 503.238 253.187 573.277 277.717 610.477C339.04 703.681 413.364 742.243 531.595 742.379C568.389 742.379 599.173 743.197 599.173 744.014C585.294 749.935 571.127 754.984 556.738 759.14C512.967 775.336 466.44 780.184 420.723 773.311ZM766.954 523.95C717.895 508.144 686.743 444.509 700.602 386.052C715.32 324.461 767.076 290.668 830.975 301.842C855.505 305.93 857.835 307.974 857.835 326.097C857.835 344.219 857.835 345.718 841.155 336.044C824.184 326.761 804.85 324.267 786.416 328.984C767.983 333.7 751.578 345.338 739.971 361.934C733.589 375.85 730.348 391.283 730.528 406.9C730.528 481.845 787.068 523.814 848.882 494.517C872.43 483.48 872.552 483.616 863.231 506.917C853.91 530.218 812.578 538.53 766.954 523.95ZM368.843 508.007C373.994 501.058 375.466 468.9 374.117 398.997L372.155 299.798H415.817C467.819 299.798 487.074 308.246 497.009 335.362C501.504 347.187 502.099 360.395 498.689 372.659C495.279 384.923 488.082 395.457 478.366 402.404C459.602 417.12 429.308 425.296 429.308 416.03C429.582 413.931 430.58 412.034 432.091 410.737C433.601 409.44 435.506 408.846 437.403 409.081C451.139 409.081 465.734 385.371 465.734 362.887C465.734 338.088 447.582 320.51 421.826 320.51H405.514V411.124C405.514 472.579 407.845 504.328 412.751 509.915C417.656 515.502 413.609 518.091 390.797 518.091C366.268 518.091 362.711 516.592 368.843 508.28V508.007ZM525.585 408.808V299.798H589.607C647.373 299.798 653.628 301.024 653.628 312.198C653.628 323.371 648.109 324.461 608.372 324.053H563.115L561.153 352.94L559.191 381.555H587.89C657.553 381.555 690.422 425.977 663.195 483.344C650.93 508.28 625.42 517.818 569.983 517.818H525.585V408.808ZM637.071 481.981C663.44 445.871 640.873 408.808 592.305 408.808H562.379V451.731C561.352 468.107 563.057 484.553 567.408 500.24C576.974 510.869 625.174 498.333 637.071 481.981Z" fill="#FFffff"/>
</svg>
